# xmcd CD database file generated by Grip 3.3.1
# 
# Track frame offsets:
#       150
#       16767
#       36669
#       60879
#       76814
#       108848
#       125977
#       144610
#       168031
#       183802
#       199781
# 
# Disc length: 2858 seconds
# 
# Revision: 2
# Processed by: cddbd v1.5.2PL0 Copyright (c) Steve Scherf et al.
# Submitted via: Grip 3.3.1
# 
DISCID=880b280b
DTITLE=Ricky Skaggs and Kentucky Thunder - Instrumentals
DYEAR=2006
DGENRE=Bluegrass
TTITLE0=Going To Richmond
TTITLE1=Missing Vassar
TTITLE2=Wayward To Hayward
TTITLE3=Montana Slim
TTITLE4=Crossing The Briney
TTITLE5=Crossville
TTITLE6=Gallatin Rag
TTITLE7=Dawg's Breath
TTITLE8=Spam Jelly
TTITLE9=Goin' To The Ceili
TTITLE10=Polk City
EXTD=
EXTT0=
EXTT1=
EXTT2=
EXTT3=
EXTT4=
EXTT5=
EXTT6=
EXTT7=
EXTT8=
EXTT9=
EXTT10=
PLAYORDER=
